<svg xmlns="http://www.w3.org/2000/svg" width="564" height="557" viewBox="0 0 564 557" fill="none">
  <path d="M563.522 281.606C563.397 126.481 437.249 0.208008 281.999 0.208008C126.75 0.208008 0.476462 126.481 0.476462 281.731H0.351562V357.795C0.351562 432.734 29.7029 503.302 83.0349 556.759C136.367 610.091 207.06 639.442 281.999 639.442C356.939 639.442 427.507 610.091 480.964 556.759C534.296 503.427 563.647 432.734 563.647 357.795L563.522 281.606ZM281.999 10.1999C431.754 10.1999 553.53 131.977 553.53 281.731C553.53 431.485 431.754 553.137 281.999 553.137C132.245 553.137 10.4684 431.36 10.4684 281.606C10.4684 131.852 132.245 10.1999 281.999 10.1999ZM199.316 550.764V616.586C175.086 608.842 152.354 597.726 131.621 583.987V519.539C152.604 532.778 175.211 543.395 199.316 550.764ZM209.308 553.637C230.916 559.382 253.647 562.629 277.003 563.129V629.45C253.647 629.076 230.916 625.579 209.308 619.583V553.637ZM286.995 563.129C310.352 562.754 333.083 559.507 354.691 553.637V619.583C333.083 625.579 310.352 628.951 286.995 629.45V563.129ZM364.683 550.764C388.788 543.395 411.52 532.778 432.378 519.539V583.987C411.645 597.851 388.913 608.842 364.683 616.586V550.764ZM10.3435 355.421C17.7126 382.774 29.2033 408.504 44.0663 431.86V488.689C22.5836 449.845 10.3435 405.256 10.3435 357.795V355.421ZM54.0582 505.426V446.598C72.6682 472.327 95.6497 494.809 121.754 512.919V576.993C95.0252 557.384 72.0437 533.153 54.0582 505.426ZM442.37 576.993V512.919C468.474 494.809 491.331 472.327 510.065 446.598V505.426C491.955 533.153 468.974 557.384 442.37 576.993ZM519.932 488.689V431.86C534.795 408.504 546.161 382.774 553.655 355.421V357.795C553.655 405.256 541.415 449.845 519.932 488.689ZM281.999 505.051C405.15 505.051 505.444 404.882 505.444 281.606C505.444 158.455 405.275 58.1613 281.999 58.1613C158.724 58.1613 58.5546 158.455 58.5546 281.731C58.5546 404.882 158.849 505.051 281.999 505.051ZM281.999 68.2781C399.654 68.2781 495.452 164.076 495.452 281.731C495.452 399.386 399.654 495.059 281.999 495.059C164.344 495.059 68.5466 399.261 68.5466 281.606C68.5466 163.951 164.344 68.2781 281.999 68.2781ZM176.21 217.033C176.21 225.401 183.079 232.271 191.447 232.271H329.461C327.213 238.516 323.591 244.261 318.72 249.132C310.102 257.75 298.736 262.496 286.621 262.496H191.323C182.954 262.496 176.085 269.366 176.085 277.734C176.085 282.48 178.333 287.102 182.205 289.974L356.939 419.245C359.562 421.243 362.684 422.243 365.932 422.243C366.681 422.243 367.43 422.243 368.18 422.118C372.177 421.493 375.674 419.37 378.047 416.123C380.42 412.875 381.419 408.878 380.92 404.882C380.295 400.885 378.172 397.263 374.924 394.89L237.285 292.847H286.496C306.729 292.847 325.714 284.978 340.078 270.615C350.569 260.123 357.813 246.634 360.811 232.271H372.551C380.92 232.271 387.789 225.401 387.789 217.033C387.789 208.665 380.92 201.795 372.551 201.795H360.811C358.563 190.929 353.816 180.563 347.197 171.57H372.551C380.92 171.57 387.789 164.7 387.789 156.332C387.789 147.964 380.92 141.094 372.551 141.094H191.447C183.079 141.094 176.21 147.964 176.21 156.332C176.21 164.7 183.079 171.57 191.447 171.57H286.746C298.736 171.57 310.227 176.316 318.845 184.934C323.591 189.68 327.338 195.426 329.586 201.67H191.447C182.954 201.795 176.21 208.54 176.21 217.033ZM340.827 205.792C338.579 195.176 333.333 185.558 325.714 177.94C315.223 167.448 301.359 161.703 286.621 161.703H191.323C188.45 161.703 186.077 159.33 186.077 156.457C186.077 153.584 188.45 151.211 191.323 151.211H372.551C375.424 151.211 377.797 153.584 377.797 156.457C377.797 159.33 375.424 161.703 372.551 161.703H336.206C334.207 161.703 332.334 162.952 331.584 164.825C330.835 166.699 331.21 168.822 332.708 170.321L333.083 170.695C343.075 180.687 349.695 193.802 351.693 207.666C352.068 210.164 354.191 211.912 356.689 211.912H372.551C375.424 211.912 377.797 214.285 377.797 217.158C377.797 220.031 375.424 222.404 372.551 222.404H356.689C354.191 222.404 352.068 224.277 351.693 226.65C349.695 240.514 343.075 253.629 333.083 263.621C320.718 275.986 304.481 282.855 287.12 282.98H222.173C220.049 282.98 218.051 284.354 217.426 286.352C216.802 288.351 217.426 290.599 219.175 291.973L368.929 403.008C370.053 403.882 370.803 405.131 371.053 406.505C371.302 407.879 370.928 409.253 370.053 410.377C369.179 411.501 368.055 412.251 366.681 412.376C365.307 412.625 363.933 412.251 362.809 411.376L188.325 281.731C187.076 280.732 186.202 279.233 186.202 277.609C186.202 274.737 188.575 272.363 191.447 272.363H287.37C301.858 272.239 315.472 266.493 325.839 256.127C333.583 248.508 338.704 238.766 340.952 228.274C341.202 226.775 340.952 225.276 339.953 224.152C338.953 223.028 337.58 222.279 336.081 222.279H191.447C188.575 222.279 186.202 219.906 186.202 217.033C186.202 214.16 188.575 211.787 191.447 211.787H336.081C337.58 211.787 338.953 211.163 339.953 209.914C340.827 208.79 341.202 207.166 340.827 205.792Z" fill="#EEAF03"/>
</svg>