<svg width="56" height="56" viewBox="0 0 56 56" fill="none" xmlns="http://www.w3.org/2000/svg">
<g id="Group 1171275825">
<g id="Rectangle 3463635" filter="url(#filter0_b_1_1302)">
<rect width="56.0026" height="56" rx="28" fill="#513C04"/>
</g>
<g id="Group">
<path id="Vector" d="M39.4623 16.5132H27.1196C25.6912 16.5132 24.5335 17.6711 24.5335 19.0992V25.1789C25.186 25.5032 25.891 25.8538 26.549 26.1809L27.5558 24.1666C28.1654 22.9485 29.6513 22.4536 30.869 23.0621C32.0892 23.6728 32.5837 25.1547 31.9729 26.3752L30.1782 29.9654C30.2263 30.4418 30.1826 30.9231 30.0496 31.3832H31.2345L28.1094 39.9765C27.924 40.4861 28.2824 41.0809 28.8831 41.0809C29.219 41.0809 29.535 40.8737 29.6563 40.5389L32.9858 31.3832H33.5626L36.926 40.5417C37.0484 40.8747 37.3635 41.0809 37.6991 41.0809C38.2605 41.0809 38.672 40.5203 38.4712 39.9743L35.3161 31.3832H39.4624C40.8904 31.3832 42.0483 30.2253 42.0483 28.7972V19.0992C42.0483 17.6711 40.8904 16.5132 39.4623 16.5132ZM37.6987 27.8571H34.0059C33.5514 27.8571 33.1828 27.4884 33.1828 27.034C33.1828 26.5792 33.5514 26.2109 34.0059 26.2109H37.6987C38.1536 26.2109 38.5218 26.5792 38.5218 27.034C38.5218 27.4884 38.1536 27.8571 37.6987 27.8571ZM37.6987 24.7712H34.0059C33.5514 24.7712 33.1828 24.4031 33.1828 23.9482C33.1828 23.4938 33.5514 23.1251 34.0059 23.1251H37.6987C38.1536 23.1251 38.5218 23.4938 38.5218 23.9482C38.5218 24.4031 38.1536 24.7712 37.6987 24.7712ZM37.6987 21.6859H28.8831C28.4283 21.6859 28.0601 21.3171 28.0601 20.8628C28.0601 20.4085 28.4283 20.0397 28.8831 20.0397H37.6987C38.1535 20.0397 38.5218 20.4084 38.5218 20.8628C38.5218 21.3172 38.1536 21.6859 37.6987 21.6859Z" fill="#F7F7F7"/>
<path id="Vector_2" d="M28.4363 31.03C28.585 30.5943 28.584 30.139 28.4584 29.7236L30.5011 25.6387C30.7042 25.2321 30.5396 24.7377 30.133 24.5345C29.7267 24.331 29.2322 24.4959 29.0288 24.9025L27.2866 28.3864C26.2453 27.8679 24.6633 27.0813 23.3889 26.4475C22.2031 25.8578 21.3569 25.329 19.9131 25.329H19.1859C20.3101 25.329 21.3134 24.8116 21.9701 24.0018C22.4713 23.3856 22.7709 22.6003 22.7709 21.7444C22.7709 19.7642 21.1659 18.1592 19.1854 18.1592C17.2058 18.1592 15.6008 19.7642 15.6008 21.7444C15.6008 22.6955 15.9712 23.5597 16.5755 24.201C17.2287 24.8957 18.1566 25.329 19.1852 25.3293C17.8061 25.3293 16.458 25.888 15.4881 26.8605C14.4993 27.8467 13.9547 29.1606 13.9547 30.5602V33.205C13.9547 34.3435 14.694 35.3123 15.7179 35.657V40.2575C15.7179 40.7122 16.0863 41.0806 16.5409 41.0806H21.8304C22.285 41.0806 22.6534 40.7122 22.6534 40.2575V31.0099C23.4339 31.4001 24.4591 31.9126 25.2886 32.3275C25.87 32.6181 26.5495 32.6443 27.1554 32.3978C27.7597 32.1492 28.2254 31.6543 28.4331 31.0397L28.4363 31.03Z" fill="#F7F7F7"/>
</g>
</g>
<defs>
<filter id="filter0_b_1_1302" x="-30" y="-30" width="116.003" height="116" filterUnits="userSpaceOnUse" color-interpolation-filters="sRGB">
<feFlood flood-opacity="0" result="BackgroundImageFix"/>
<feGaussianBlur in="BackgroundImageFix" stdDeviation="15"/>
<feComposite in2="SourceAlpha" operator="in" result="effect1_backgroundBlur_1_1302"/>
<feBlend mode="normal" in="SourceGraphic" in2="effect1_backgroundBlur_1_1302" result="shape"/>
</filter>
</defs>
</svg>
