<svg width="38" height="36" viewBox="0 0 38 36" fill="none" xmlns="http://www.w3.org/2000/svg">
<g id="Payments" clip-path="url(#clip0_1_1322)">
<g id="Group">
<path id="Vector" fill-rule="evenodd" clip-rule="evenodd" d="M25.927 24.8769C26.039 24.2428 26.3788 23.6674 26.8862 23.2526C27.3937 22.8378 28.0361 22.6103 28.7 22.6103H29.8896L31.4718 24.0837L33.0474 22.6103H34.2436C34.613 22.6103 34.9789 22.6809 35.3202 22.8179C35.6615 22.9549 35.9716 23.1558 36.2329 23.409C36.4941 23.6622 36.7013 23.9628 36.8427 24.2936C36.9841 24.6244 37.0568 24.979 37.0568 25.3371V28.9119C37.0568 29.0086 37.0172 29.1013 36.9467 29.1697C36.8761 29.238 36.7804 29.2764 36.6807 29.2764H34.6372V25.9434C34.6372 25.6452 34.3875 25.4032 34.0799 25.4032C33.7723 25.4032 33.5225 25.6452 33.5225 25.9434V29.2764H30.1129V29.1759C30.1129 28.3586 29.8729 27.5582 29.421 26.8682V25.9434C29.421 25.8001 29.3622 25.6628 29.2577 25.5615C29.1532 25.4602 29.0115 25.4032 28.8637 25.4032C28.7529 25.4032 28.6446 25.4352 28.5527 25.4951C28.4608 25.555 28.3893 25.6401 28.3474 25.7395C27.6464 25.2264 26.8041 24.9262 25.927 24.8769ZM31.4718 16.2918C32.9056 16.2918 34.0696 17.4201 34.0696 18.8098C34.0696 20.1994 32.9056 21.3277 31.4718 21.3277C30.038 21.3277 28.8739 20.1994 28.8739 18.8098C28.8739 17.4201 30.038 16.2918 31.4718 16.2918ZM18.7483 33.8362H16.16C16.0602 33.8362 15.9646 33.7978 15.894 33.7294C15.8235 33.661 15.7839 33.5683 15.7839 33.4716V29.1759C15.7839 28.7523 15.8699 28.3328 16.0372 27.9415C16.2044 27.5501 16.4496 27.1945 16.7586 26.895C17.0677 26.5955 17.4346 26.3579 17.8384 26.1958C18.2422 26.0337 18.6749 25.9502 19.112 25.9502H20.5194L22.391 27.6931L24.255 25.9502H25.67C26.5527 25.9503 27.3992 26.2901 28.0233 26.8951C28.6474 27.5 28.9981 28.3204 28.9982 29.1759V33.4716C28.9982 33.5683 28.9585 33.661 28.888 33.7294C28.8175 33.7978 28.7218 33.8362 28.622 33.8362H26.0338V29.8932C26.0338 29.5951 25.784 29.353 25.4764 29.353C25.1688 29.353 24.919 29.5951 24.919 29.8932V33.8362H19.8631V29.8932C19.8631 29.5951 19.6133 29.353 19.3057 29.353C18.9981 29.353 18.7483 29.5951 18.7483 29.8932V33.8362ZM22.391 18.3341C24.0872 18.3341 25.4644 19.6688 25.4644 21.3128C25.4644 22.9568 24.0872 24.2916 22.391 24.2916C20.6949 24.2916 19.3177 22.9568 19.3177 21.3128C19.3177 19.6688 20.6949 18.3341 22.391 18.3341ZM5.56131 19.0566L3.98113 15.3235C4.66413 15.0103 5.34608 14.6949 6.02509 14.3729C6.83411 13.9893 7.46166 13.6975 8.20455 13.7947C8.70023 13.8597 9.23992 14.0972 9.91683 14.5628C9.95926 14.592 10.0067 14.6136 10.057 14.6267L12.8174 15.3434C13.2729 15.4616 13.5463 15.92 13.4243 16.3615C13.3024 16.8027 12.8298 17.0676 12.3746 16.9486L8.70527 15.9963C8.59309 15.9672 8.47358 15.9825 8.37302 16.0388C8.27246 16.0951 8.19906 16.1878 8.16897 16.2965C8.13898 16.4052 8.15475 16.5211 8.21283 16.6185C8.2709 16.716 8.36652 16.7871 8.47868 16.8163L12.1474 17.7685C13.0676 18.0089 14.0237 17.4735 14.2703 16.5811C14.3117 16.4318 14.3314 16.2778 14.3289 16.1232L18.0437 15.067C18.6746 14.8876 19.1653 14.8397 19.5377 14.8952C19.817 14.9369 20.0143 15.0359 20.1294 15.1866C20.2632 15.362 20.2789 15.5922 20.2287 15.8166C20.1417 16.2067 19.8527 16.5918 19.4476 16.7432L13.7342 18.8771C13.2994 19.0393 12.7931 19.2417 12.2783 19.3696C11.8255 19.4821 11.366 19.5413 10.9552 19.4257L7.91108 18.5698C7.36056 18.4141 6.83162 18.4574 6.31458 18.7014L5.56131 19.0566ZM3.0118 15.2702L3.01406 15.2753L4.92668 19.7938L4.92931 19.7999L5.07623 20.1471C5.10204 20.208 5.1152 20.2733 5.11498 20.3392C5.11476 20.405 5.10115 20.4702 5.07493 20.531C5.04871 20.5918 5.0104 20.6469 4.96218 20.6934C4.91396 20.7398 4.85678 20.7766 4.7939 20.8016L3.85708 21.1741C3.73009 21.2246 3.58761 21.2241 3.46098 21.1728C3.33435 21.1215 3.23394 21.0235 3.18182 20.9004L0.985893 15.7127C0.960089 15.6518 0.946923 15.5865 0.947146 15.5207C0.94737 15.4548 0.960979 15.3896 0.987197 15.3288C1.01341 15.268 1.05173 15.2129 1.09995 15.1665C1.14817 15.12 1.20535 15.0833 1.26823 15.0583L2.20505 14.6857C2.33204 14.6353 2.47451 14.6357 2.60114 14.687C2.72778 14.7384 2.82819 14.8363 2.8803 14.9594L3.0118 15.2702ZM14.1353 2.67432C16.9941 2.67432 19.3108 4.91978 19.3108 7.69059C19.3108 10.4614 16.9941 12.7069 14.1353 12.7069C11.2765 12.7069 8.95782 10.4614 8.95782 7.69059C8.95782 4.91978 11.2765 2.67432 14.1353 2.67432ZM14.1354 9.67968C13.757 9.67939 13.5632 9.52489 13.3066 9.28952C13.0832 9.08456 12.7302 9.09396 12.5187 9.31052C12.3072 9.52707 12.317 9.86926 12.5404 10.0742C12.8871 10.3923 13.1852 10.6054 13.5879 10.7016L13.5972 11.1132C13.6004 11.2564 13.6622 11.3925 13.769 11.4916C13.8758 11.5906 14.0187 11.6445 14.1665 11.6414C14.3143 11.6383 14.4547 11.5784 14.5569 11.4749C14.6591 11.3714 14.7148 11.2328 14.7116 11.0896L14.7026 10.6876C15.5415 10.4669 16.1413 9.76995 16.1413 8.96811C16.1413 7.99508 15.2574 7.17392 14.1354 7.17392C13.6589 7.17392 13.2443 6.87234 13.2443 6.46023C13.2443 6.04812 13.6589 5.74655 14.1354 5.74655H14.1377C14.3902 5.74706 14.6216 5.83201 14.7887 5.97623C14.8991 6.07147 15.044 6.12032 15.1915 6.11207C15.3391 6.10381 15.4772 6.03911 15.5755 5.93219C15.6738 5.82517 15.7242 5.68472 15.7157 5.5417C15.7072 5.39868 15.6404 5.26478 15.5301 5.16944C15.2967 4.96797 15.0066 4.81566 14.683 4.73377L14.6721 4.30978C14.6684 4.16657 14.6062 4.03063 14.4992 3.93186C14.3921 3.83309 14.249 3.77956 14.1012 3.78305C13.9535 3.78664 13.8132 3.84694 13.7113 3.9507C13.6094 4.05446 13.5542 4.19318 13.5578 4.33639L13.568 4.73866C12.7278 4.95959 12.1295 5.65833 12.1295 6.46023C12.1295 7.43327 13.0103 8.25436 14.1354 8.25436C14.6107 8.25436 15.0266 8.556 15.0266 8.96811C15.0266 9.38001 14.6104 9.67968 14.1354 9.67968Z" fill="white"/>
</g>
</g>
<defs>
<clipPath id="clip0_1_1322">
<rect width="37.1742" height="34.6959" fill="white" transform="translate(0.414261 0.651855)"/>
</clipPath>
</defs>
</svg>
