<svg width="153" height="63" viewBox="0 0 153 63" fill="none" xmlns="http://www.w3.org/2000/svg">
<g clip-path="url(#clip0_1_1198)">
<path d="M25.6422 55.2081C38.7066 55.2081 49.2974 44.5999 49.2974 31.5142C49.2974 18.4284 38.7066 7.82031 25.6422 7.82031C12.5777 7.82031 1.98694 18.4284 1.98694 31.5142C1.98694 44.5999 12.5777 55.2081 25.6422 55.2081Z" fill="#FFBC05"/>
<path d="M34.7326 35.8508C34.1043 35.8508 33.5791 35.5067 33.3271 34.9298C33.0752 34.3529 33.1799 33.7335 33.6053 33.2713L36.5536 30.0724L33.6053 26.8734C33.1799 26.4113 33.0752 25.7918 33.3271 25.215C33.5791 24.6381 34.1043 24.2939 34.7326 24.2939C35.1612 24.2939 35.5719 24.4759 35.8631 24.7905L39.7539 29.0317C40.2971 29.625 40.2971 30.5181 39.7539 31.1114L35.8631 35.3526C35.5736 35.6689 35.1612 35.8492 34.7326 35.8492V35.8508Z" fill="black"/>
<path d="M16.5543 35.8492C16.1256 35.8492 15.715 35.6673 15.4237 35.3526L11.533 31.1114C10.9898 30.5181 10.9898 29.625 11.533 29.0317L15.4237 24.7905C15.7133 24.4742 16.1256 24.2939 16.5543 24.2939C17.1826 24.2939 17.7078 24.6381 17.9597 25.215C18.2117 25.7918 18.107 26.4113 17.6816 26.8734L14.7333 30.0724L17.6816 33.2713C18.107 33.7335 18.2117 34.3529 17.9597 34.9298C17.7078 35.5067 17.1826 35.8508 16.5543 35.8508V35.8492Z" fill="black"/>
<path d="M22.6176 47.1044L21.4428 48.7268C21.2629 48.9759 20.9831 48.9071 20.9405 48.6023L20.6608 46.6177L22.6176 47.1044Z" fill="black"/>
<path d="M19.8483 40.8892L20.6614 46.6168L22.6182 47.1035L26.0067 42.4214L19.8483 40.8892Z" fill="#FFE0BB"/>
<path d="M26.0049 42.4288L19.8455 40.8963L25.8125 16.8356C26.1469 15.4869 27.5108 14.6645 28.8573 14.9995L30.1403 15.3187C31.4868 15.6537 32.3079 17.0198 31.9734 18.3685L26.0065 42.4292L26.0049 42.4288Z" fill="black"/>
<path d="M56.839 24.4902C56.3629 24.2755 55.9883 23.9772 55.7183 23.597C55.4467 23.2168 55.3076 22.776 55.2994 22.2778H56.5707C56.6149 22.7071 56.7916 23.0677 57.1008 23.361C57.4117 23.6544 57.8633 23.8002 58.4572 23.8002C59.0511 23.8002 59.4732 23.6577 59.8004 23.3741C60.1277 23.089 60.2929 22.7235 60.2929 22.2778C60.2929 21.9271 60.1964 21.6436 60.005 21.424C59.8119 21.206 59.573 21.0388 59.2834 20.9258C58.9955 20.8127 58.6061 20.6898 58.1169 20.5587C57.5131 20.4013 57.0305 20.244 56.6689 20.0867C56.3057 19.9294 55.9964 19.6819 55.7379 19.3443C55.4794 19.0067 55.3518 18.5544 55.3518 17.9857C55.3518 17.4875 55.4778 17.0451 55.7314 16.66C55.985 16.2748 56.3417 15.9766 56.7998 15.7668C57.2579 15.557 57.7847 15.4521 58.3803 15.4521C59.236 15.4521 59.9379 15.6668 60.4843 16.0962C61.0308 16.5256 61.3384 17.0942 61.4088 17.8038H60.0982C60.054 17.4531 59.8708 17.145 59.5468 16.8779C59.2229 16.6108 58.7959 16.478 58.2625 16.478C57.7635 16.478 57.3577 16.6075 57.0436 16.8648C56.7294 17.1237 56.5724 17.4843 56.5724 17.9481C56.5724 18.2807 56.6656 18.5528 56.8538 18.7625C57.0419 18.9723 57.2726 19.1329 57.5491 19.2411C57.824 19.3509 58.2118 19.4754 58.7091 19.6147C59.3129 19.7819 59.7972 19.9458 60.1637 20.108C60.5302 20.2702 60.8459 20.5193 61.1077 20.8569C61.3695 21.1945 61.5004 21.6518 61.5004 22.2286C61.5004 22.6744 61.3826 23.0955 61.147 23.4889C60.9114 23.8822 60.5612 24.2017 60.0982 24.4476C59.6352 24.6934 59.0887 24.8147 58.4588 24.8147C57.8289 24.8147 57.3168 24.7081 56.839 24.4934V24.4902Z" fill="white"/>
<path d="M63.2562 19.1552C63.554 18.5996 63.9663 18.1686 64.4947 17.8622C65.0232 17.5557 65.6286 17.4033 66.3108 17.4033C67.1944 17.4033 67.9208 17.618 68.4934 18.0474C69.0661 18.4767 69.444 19.0716 69.6273 19.8337H68.3429C68.2202 19.3961 67.983 19.0503 67.6279 18.7963C67.2745 18.5423 66.8344 18.4161 66.3108 18.4161C65.6286 18.4161 65.0788 18.6505 64.6583 19.1192C64.2379 19.5879 64.0284 20.2499 64.0284 21.1087C64.0284 21.9674 64.2379 22.6442 64.6583 23.1178C65.0772 23.5898 65.6286 23.8274 66.3108 23.8274C66.836 23.8274 67.2729 23.7045 67.6214 23.4604C67.9715 23.2145 68.212 22.8655 68.3429 22.4099H69.6273C69.4342 23.1457 69.0497 23.734 68.4738 24.1765C67.8963 24.619 67.1764 24.8402 66.3108 24.8402C65.6286 24.8402 65.0232 24.6878 64.4947 24.3814C63.9663 24.0749 63.5523 23.6423 63.2562 23.0818C62.9584 22.5213 62.8112 21.8658 62.8112 21.1119C62.8112 20.3581 62.96 19.7173 63.2562 19.1618V19.1552Z" fill="white"/>
<path d="M76.2463 17.7388C76.6831 17.9715 77.0267 18.3189 77.2754 18.7827C77.5241 19.2465 77.6484 19.8119 77.6484 20.4772V24.7184H76.4688V20.6476C76.4688 19.9298 76.2888 19.3808 75.9305 18.999C75.5722 18.6188 75.083 18.4271 74.4629 18.4271C73.8428 18.4271 73.3339 18.6237 72.9625 19.0187C72.5911 19.412 72.4062 19.9856 72.4062 20.7394V24.7184H71.2135V15.002H72.4062V18.5467C72.6418 18.1796 72.9674 17.8944 73.383 17.6929C73.7986 17.4913 74.2633 17.3913 74.7786 17.3913C75.3202 17.3913 75.8094 17.5077 76.2463 17.7388Z" fill="white"/>
<path d="M80.9075 24.3748C80.3611 24.0683 79.9324 23.6324 79.6232 23.0687C79.3123 22.5033 79.1569 21.8494 79.1569 21.1054C79.1569 20.3614 79.3156 19.7206 79.6346 19.1552C79.9537 18.5898 80.3889 18.1572 80.9386 17.8556C81.4884 17.5541 82.1052 17.4033 82.7874 17.4033C83.4697 17.4033 84.0849 17.5541 84.6363 17.8556C85.1876 18.1572 85.6212 18.5882 85.9403 19.1486C86.2593 19.7091 86.418 20.3614 86.418 21.1054C86.418 21.8494 86.2544 22.5033 85.9255 23.0687C85.5983 23.6341 85.1549 24.0683 84.5954 24.3748C84.0358 24.6813 83.4157 24.8337 82.7334 24.8337C82.0512 24.8337 81.4507 24.6813 80.9043 24.3748H80.9075ZM83.9426 23.4817C84.3189 23.2801 84.6216 22.9785 84.8539 22.5754C85.0862 22.1722 85.2007 21.6822 85.2007 21.1054C85.2007 20.5285 85.0878 20.0369 84.8604 19.6354C84.633 19.2322 84.3369 18.9323 83.9687 18.7357C83.6022 18.539 83.203 18.4407 82.776 18.4407C82.349 18.4407 81.9383 18.539 81.5767 18.7357C81.2135 18.9323 80.9239 19.2322 80.7046 19.6354C80.4854 20.0385 80.3774 20.5285 80.3774 21.1054C80.3774 21.6822 80.4838 22.187 80.6981 22.5885C80.9124 22.9917 81.1988 23.2916 81.5571 23.4882C81.9154 23.6849 82.3081 23.7832 82.7367 23.7832C83.1654 23.7832 83.5679 23.6832 83.9426 23.4817Z" fill="white"/>
<path d="M89.2983 24.3753C88.7518 24.0688 88.3231 23.6329 88.0139 23.0692C87.703 22.5038 87.5476 21.8499 87.5476 21.1059C87.5476 20.3619 87.7063 19.7211 88.0254 19.1557C88.3444 18.5903 88.7796 18.1577 89.3294 17.8561C89.8791 17.5546 90.4959 17.4038 91.1782 17.4038C91.8605 17.4038 92.4756 17.5546 93.027 17.8561C93.5784 18.1577 94.012 18.5887 94.331 19.1491C94.6501 19.7096 94.8088 20.3619 94.8088 21.1059C94.8088 21.8499 94.6452 22.5038 94.3163 23.0692C93.9891 23.6346 93.5457 24.0688 92.9861 24.3753C92.4266 24.6817 91.8065 24.8342 91.1242 24.8342C90.4419 24.8342 89.8415 24.6817 89.295 24.3753H89.2983ZM92.3333 23.4821C92.7096 23.2806 93.0123 22.979 93.2446 22.5759C93.477 22.1727 93.5915 21.6827 93.5915 21.1059C93.5915 20.529 93.4786 20.0374 93.2512 19.6359C93.0238 19.2327 92.7276 18.9328 92.3595 18.7362C91.993 18.5395 91.5938 18.4412 91.1667 18.4412C90.7397 18.4412 90.329 18.5395 89.9675 18.7362C89.6042 18.9328 89.3146 19.2327 89.0954 19.6359C88.8762 20.039 88.7682 20.529 88.7682 21.1059C88.7682 21.6827 88.8745 22.1875 89.0889 22.589C89.3032 22.9921 89.5895 23.292 89.9478 23.4887C90.3061 23.6854 90.6988 23.7837 91.1275 23.7837C91.5561 23.7837 91.9586 23.6837 92.3333 23.4821Z" fill="white"/>
<path d="M97.5781 15.002V24.7184H96.3854V15.002H97.5781Z" fill="white"/>
<path d="M104.932 24.2148C104.233 23.8166 103.68 23.261 103.273 22.5465C102.867 21.8336 102.663 21.0289 102.663 20.1374C102.663 19.2459 102.866 18.4413 103.273 17.7284C103.679 17.0155 104.232 16.4599 104.932 16.0601C105.631 15.6618 106.405 15.4619 107.252 15.4619C108.1 15.4619 108.887 15.6618 109.585 16.0601C110.284 16.4583 110.835 17.0122 111.238 17.7218C111.64 18.4314 111.84 19.2361 111.84 20.1374C111.84 21.0388 111.639 21.8451 111.238 22.553C110.835 23.2626 110.285 23.8149 109.585 24.2148C108.887 24.613 108.108 24.8129 107.252 24.8129C106.396 24.8129 105.631 24.613 104.932 24.2148ZM108.977 23.3282C109.489 23.0299 109.89 22.6055 110.182 22.0548C110.475 21.5042 110.621 20.8651 110.621 20.1374C110.621 19.4098 110.475 18.7608 110.182 18.2135C109.89 17.6661 109.49 17.2433 108.983 16.9467C108.476 16.6484 107.9 16.4993 107.252 16.4993C106.604 16.4993 106.028 16.6484 105.521 16.9467C105.014 17.2449 104.615 17.6661 104.322 18.2135C104.029 18.7608 103.883 19.4016 103.883 20.1374C103.883 20.8733 104.029 21.5026 104.322 22.0548C104.615 22.6071 105.017 23.0316 105.528 23.3282C106.04 23.6265 106.614 23.7739 107.252 23.7739C107.89 23.7739 108.464 23.6248 108.977 23.3282Z" fill="white"/>
<path d="M116.336 18.5103H114.83V24.7214H113.637V18.5103H112.706V17.5254H113.637V17.0125C113.637 16.2078 113.845 15.6179 114.26 15.2458C114.676 14.8738 115.342 14.687 116.26 14.687V15.685C115.734 15.685 115.366 15.7883 115.152 15.9931C114.938 16.1996 114.831 16.5389 114.831 17.0108V17.5238H116.338V18.5087L116.336 18.5103Z" fill="white"/>
<path d="M68.6472 30.8218V34.1944H64.0759V48.1046H59.8727V34.1944H55.3013V30.8218H68.6489H68.6472Z" fill="white"/>
<path d="M83.6168 42.2473H74.1044C74.1698 43.1011 74.4447 43.7533 74.9273 44.204C75.41 44.6563 76.0039 44.8808 76.7091 44.8808C77.7578 44.8808 78.4876 44.4383 78.8966 43.5517H83.3698C83.1407 44.4547 82.7268 45.2676 82.128 45.9887C81.5291 46.7114 80.7798 47.2768 79.8783 47.6881C78.9768 48.0994 77.9689 48.3043 76.8547 48.3043C75.5114 48.3043 74.3138 48.0175 73.265 47.4423C72.2163 46.8687 71.3966 46.0476 70.8075 44.9808C70.2169 43.9139 69.9224 42.6668 69.9224 41.2378C69.9224 39.8087 70.2136 38.5632 70.7945 37.4964C71.3753 36.4295 72.1917 35.6084 73.2405 35.0349C74.2892 34.4596 75.4934 34.1729 76.8547 34.1729C78.216 34.1729 79.3613 34.4514 80.3937 35.0103C81.4261 35.5691 82.2327 36.3639 82.8151 37.398C83.396 38.4321 83.6872 39.6383 83.6872 41.0182C83.6872 41.4115 83.6626 41.8228 83.6136 42.2489L83.6168 42.2473ZM79.3891 39.9087C79.3891 39.186 79.1436 38.6124 78.6512 38.1847C78.1587 37.7586 77.5451 37.5439 76.8073 37.5439C76.0694 37.5439 75.5082 37.7487 75.0255 38.1601C74.5412 38.5714 74.2434 39.1532 74.1289 39.9087H79.3891Z" fill="white"/>
<path d="M85.9393 37.4964C86.5201 36.4295 87.3317 35.6084 88.3722 35.0349C89.4128 34.4596 90.6056 34.1729 91.9488 34.1729C93.67 34.1729 95.1082 34.6252 96.2633 35.5265C97.4184 36.4295 98.1759 37.7012 98.5375 39.3433H94.0643C93.6864 38.2928 92.9583 37.7668 91.8768 37.7668C91.1062 37.7668 90.4927 38.0667 90.0329 38.6648C89.5748 39.2646 89.3441 40.1217 89.3441 41.2377C89.3441 42.3538 89.5731 43.2125 90.0329 43.8107C90.491 44.4105 91.1062 44.7087 91.8768 44.7087C92.9583 44.7087 93.688 44.1843 94.0643 43.1322H98.5375C98.1776 44.7415 97.4151 46.005 96.2519 46.9244C95.0886 47.8438 93.6537 48.3026 91.9505 48.3026C90.6072 48.3026 89.4145 48.0159 88.3739 47.4406C87.3333 46.8671 86.5218 46.046 85.9409 44.9791C85.3585 43.9123 85.0689 42.6651 85.0689 41.2361C85.0689 39.8071 85.3601 38.5616 85.9409 37.4947L85.9393 37.4964Z" fill="white"/>
<path d="M112.991 35.7825C113.941 36.8248 114.416 38.2571 114.416 40.0794V48.1063H110.237V40.6465C110.237 39.7271 110 39.0142 109.524 38.5045C109.048 37.9965 108.409 37.7409 107.606 37.7409C106.803 37.7409 106.165 37.9949 105.689 38.5045C105.212 39.0142 104.975 39.7271 104.975 40.6465V48.1063H100.772V29.8877H104.975V36.2151C105.401 35.6088 105.983 35.1237 106.721 34.7631C107.459 34.4026 108.285 34.2223 109.203 34.2223C110.777 34.2223 112.038 34.7435 112.989 35.7858L112.991 35.7825Z" fill="white"/>
<path d="M117.648 32.2882C117.182 31.8539 116.948 31.3164 116.948 30.6756C116.948 30.0349 117.182 29.4728 117.648 29.0385C118.114 28.6042 118.716 28.3862 119.454 28.3862C120.192 28.3862 120.77 28.6042 121.236 29.0385C121.702 29.4744 121.936 30.0201 121.936 30.6756C121.936 31.3312 121.702 31.8539 121.236 32.2882C120.77 32.7225 120.174 32.9405 119.454 32.9405C118.734 32.9405 118.114 32.7225 117.648 32.2882ZM121.544 34.3679V48.106H117.34V34.3679H121.544Z" fill="white"/>
<path d="M137.449 42.2473H127.936C128.002 43.1011 128.276 43.7533 128.759 44.204C129.242 44.6563 129.836 44.8808 130.541 44.8808C131.59 44.8808 132.319 44.4383 132.728 43.5517H137.202C136.973 44.4547 136.559 45.2676 135.96 45.9887C135.361 46.7114 134.612 47.2768 133.71 47.6881C132.809 48.0994 131.801 48.3043 130.687 48.3043C129.343 48.3043 128.146 48.0175 127.097 47.4423C126.048 46.8687 125.228 46.0476 124.639 44.9808C124.049 43.9139 123.754 42.6668 123.754 41.2378C123.754 39.8087 124.045 38.5632 124.626 37.4964C125.207 36.4295 126.024 35.6084 127.072 35.0349C128.121 34.4596 129.325 34.1729 130.687 34.1729C132.048 34.1729 133.193 34.4514 134.225 35.0103C135.258 35.5691 136.064 36.3639 136.647 37.398C137.228 38.4321 137.519 39.6383 137.519 41.0182C137.519 41.4115 137.494 41.8228 137.445 42.2489L137.449 42.2473ZM133.221 39.9087C133.221 39.186 132.975 38.6124 132.483 38.1847C131.991 37.7586 131.377 37.5439 130.639 37.5439C129.901 37.5439 129.34 37.7487 128.857 38.1601C128.373 38.5714 128.075 39.1532 127.961 39.9087H133.221Z" fill="white"/>
<path d="M142.118 47.6865C141.184 47.2768 140.446 46.7147 139.906 46.0002C139.365 45.2856 139.062 44.4859 138.997 43.5993H143.151C143.2 44.0762 143.421 44.4613 143.815 44.7563C144.208 45.0513 144.692 45.1988 145.265 45.1988C145.788 45.1988 146.194 45.0972 146.482 44.8907C146.768 44.6858 146.912 44.4187 146.912 44.0909C146.912 43.6976 146.708 43.4059 146.297 43.2175C145.886 43.029 145.224 42.8192 144.306 42.5898C143.323 42.3604 142.503 42.1178 141.848 41.8638C141.192 41.6098 140.628 41.2066 140.152 40.6576C139.676 40.1086 139.438 39.3646 139.438 38.4289C139.438 37.6406 139.656 36.9228 140.09 36.2738C140.523 35.6249 141.163 35.1136 142.007 34.735C142.851 34.3581 143.854 34.168 145.018 34.168C146.739 34.168 148.094 34.5957 149.085 35.4479C150.077 36.3017 150.646 37.4341 150.793 38.8451H146.909C146.844 38.3699 146.634 37.9913 146.282 37.7127C145.931 37.4341 145.468 37.2948 144.893 37.2948C144.402 37.2948 144.024 37.3899 143.763 37.5783C143.501 37.7668 143.37 38.0257 143.37 38.3535C143.37 38.7468 143.579 39.0434 143.997 39.2401C144.414 39.4367 145.067 39.6334 145.95 39.8317C146.966 40.0939 147.794 40.3528 148.432 40.6068C149.072 40.8609 149.633 41.2722 150.116 41.8376C150.598 42.4046 150.849 43.1634 150.865 44.1155C150.865 44.9202 150.639 45.638 150.189 46.2706C149.738 46.9031 149.092 47.3997 148.247 47.7602C147.403 48.1208 146.425 48.301 145.31 48.301C144.114 48.301 143.049 48.0962 142.115 47.6848L142.118 47.6865Z" fill="white"/>
<path d="M60.7095 59.4085V54.7051H62.0446C62.5092 54.7051 62.9052 54.7755 63.234 54.9181C63.5629 55.0607 63.8279 55.2475 64.0276 55.4802C64.2272 55.7129 64.3744 55.9719 64.4693 56.2587C64.5642 56.5455 64.6116 56.8322 64.6116 57.1207C64.6116 57.4747 64.5495 57.7909 64.4251 58.0712C64.3008 58.3514 64.1306 58.5907 63.9147 58.7923C63.7003 58.9922 63.45 59.1462 63.1669 59.2511C62.8839 59.356 62.5861 59.4101 62.2769 59.4101H60.7095V59.4085ZM61.4637 58.6841H62.128C62.3816 58.6841 62.6123 58.648 62.8217 58.5776C63.0295 58.5071 63.2095 58.4039 63.36 58.2678C63.5105 58.1318 63.6283 57.9647 63.7118 57.7631C63.7952 57.5632 63.8378 57.3304 63.8378 57.0682C63.8378 56.7749 63.7887 56.5242 63.6921 56.316C63.5956 56.1063 63.468 55.9375 63.3109 55.8047C63.1539 55.6736 62.9837 55.5769 62.7988 55.5179C62.6139 55.4573 62.4307 55.4278 62.2507 55.4278H61.4637V58.6841Z" fill="white"/>
<path d="M66.7662 59.4832C66.4521 59.4832 66.1805 59.4209 65.9498 59.2964C65.7191 59.1718 65.544 58.9998 65.4246 58.7802C65.3035 58.5606 65.2446 58.3082 65.2446 58.0247C65.2446 57.7412 65.3133 57.5019 65.4508 57.2823C65.5882 57.0627 65.7747 56.8873 66.0087 56.7562C66.2427 56.6251 66.5028 56.5596 66.7859 56.5596C67.1605 56.5596 67.4681 56.6677 67.7119 56.8857C67.9541 57.1037 68.1177 57.4101 68.1995 57.8067L66.0005 58.5491L65.8385 58.1427L67.5483 57.5281L67.406 57.6182C67.3585 57.4855 67.2816 57.3691 67.1736 57.2725C67.0656 57.1758 66.9184 57.1266 66.7286 57.1266C66.5781 57.1266 66.4439 57.1627 66.3294 57.2364C66.2132 57.3101 66.1216 57.4101 66.0545 57.5363C65.9874 57.6641 65.9547 57.8116 65.9547 57.9788C65.9547 58.164 65.9907 58.3229 66.0643 58.454C66.138 58.5851 66.2361 58.6867 66.3605 58.7572C66.4848 58.8277 66.6272 58.8637 66.7859 58.8637C66.8971 58.8637 67.0051 58.8441 67.1082 58.8064C67.2113 58.7687 67.3078 58.7162 67.3978 58.6507L67.7266 59.1866C67.5843 59.2767 67.4289 59.3488 67.2587 59.4029C67.0886 59.457 66.9249 59.4832 66.7646 59.4832H66.7662Z" fill="white"/>
<path d="M69.727 59.47C69.5209 59.47 69.3245 59.434 69.1364 59.3602C68.9499 59.2865 68.7928 59.1816 68.6685 59.0439L68.9711 58.631C69.0922 58.7424 69.21 58.8276 69.3295 58.8833C69.4473 58.939 69.5601 58.9669 69.6681 58.9669C69.7499 58.9669 69.8236 58.9571 69.8906 58.9374C69.9577 58.9177 70.0101 58.8866 70.0494 58.844C70.0886 58.8014 70.1066 58.7457 70.1066 58.6752C70.1066 58.5851 70.0772 58.5162 70.0199 58.4687C69.9626 58.4212 69.8857 58.3819 69.7908 58.3491C69.6959 58.3163 69.5978 58.2835 69.4947 58.2491C69.2575 58.1754 69.0824 58.0688 68.9662 57.9263C68.8501 57.7837 68.7912 57.6182 68.7912 57.4281C68.7912 57.2904 68.8272 57.1544 68.9008 57.0216C68.9744 56.8889 69.084 56.7791 69.2329 56.6955C69.3818 56.6119 69.5716 56.5693 69.8039 56.5693C70.0068 56.5693 70.1852 56.5923 70.3389 56.6398C70.4944 56.6873 70.6384 56.7627 70.7709 56.866L70.4927 57.3052C70.4158 57.2314 70.3242 57.1741 70.2179 57.1314C70.1132 57.0888 70.0166 57.0643 69.9316 57.061C69.8547 57.0561 69.7859 57.0675 69.7254 57.0938C69.6649 57.12 69.6158 57.1528 69.5765 57.1937C69.5372 57.2347 69.5192 57.2839 69.5192 57.3396C69.5143 57.4264 69.5454 57.4953 69.6092 57.5461C69.673 57.5969 69.7565 57.6395 69.8579 57.669C69.9594 57.6985 70.0575 57.7312 70.1508 57.7657C70.2833 57.8083 70.4011 57.8624 70.5026 57.9279C70.604 57.9918 70.6842 58.0738 70.7447 58.1737C70.8052 58.2721 70.8347 58.3933 70.8347 58.5359C70.8347 58.6998 70.7938 58.8522 70.712 58.9948C70.6302 59.1373 70.5091 59.2521 70.3471 59.3406C70.1851 59.4291 69.979 59.4733 69.7254 59.4733L69.727 59.47Z" fill="white"/>
<path d="M71.6118 55.6875C71.6118 55.5793 71.6544 55.4892 71.7411 55.4155C71.8278 55.3417 71.921 55.3057 72.0258 55.3057C72.1305 55.3057 72.2221 55.3417 72.3055 55.4155C72.389 55.4892 72.4315 55.581 72.4315 55.6941C72.4315 55.8071 72.389 55.8924 72.3055 55.9661C72.2221 56.0398 72.1288 56.0759 72.0258 56.0759C71.9227 56.0759 71.8278 56.0398 71.7411 55.9661C71.6544 55.8924 71.6118 55.8006 71.6118 55.6875ZM71.6445 56.6757H72.3677V59.4092H71.6445V56.6757Z" fill="white"/>
<path d="M74.7076 60.7779C74.4884 60.7779 74.2986 60.7517 74.1399 60.6976C73.9812 60.6435 73.8405 60.5763 73.7178 60.4944C73.5951 60.4124 73.4822 60.3239 73.3791 60.2289L73.7979 59.7307C73.9223 59.8471 74.0548 59.9454 74.1939 60.024C74.333 60.1043 74.5031 60.1437 74.6994 60.1437C74.8762 60.1437 75.0299 60.1142 75.1608 60.0535C75.2917 59.9929 75.3948 59.9093 75.4701 59.8012C75.5453 59.693 75.5813 59.5619 75.5764 59.4079L75.583 58.7228L75.6288 58.8654C75.5519 59.0342 75.4161 59.1784 75.2263 59.2981C75.0349 59.4193 74.796 59.4783 74.5064 59.4783C74.2577 59.4783 74.027 59.4144 73.8159 59.2882C73.6049 59.1604 73.438 58.9883 73.312 58.772C73.1877 58.554 73.1255 58.3066 73.1255 58.0263C73.1255 57.7461 73.1926 57.4888 73.3251 57.2676C73.4576 57.0463 73.6327 56.871 73.847 56.7448C74.0614 56.617 74.2921 56.5547 74.5375 56.5547C74.7829 56.5547 74.9923 56.5973 75.1788 56.6842C75.3654 56.771 75.5061 56.8775 75.601 57.007L75.5617 57.1102L75.6451 56.6776H76.3029V59.4177C76.3029 59.6766 76.2358 59.906 76.1 60.1093C75.9642 60.3108 75.7777 60.4747 75.5388 60.5976C75.2999 60.7205 75.0218 60.7812 74.7027 60.7812L74.7076 60.7779ZM73.8568 58.0067C73.8568 58.1706 73.8945 58.3197 73.9697 58.4524C74.045 58.5852 74.1481 58.6917 74.279 58.7687C74.4099 58.8457 74.5571 58.8851 74.7207 58.8851C74.8631 58.8851 74.9907 58.8621 75.1052 58.8146C75.2197 58.7671 75.3179 58.6999 75.4014 58.6147C75.4848 58.5278 75.547 58.4278 75.5846 58.3115V57.71C75.5453 57.5986 75.4864 57.4986 75.4046 57.4134C75.3228 57.3266 75.223 57.261 75.1052 57.2168C74.9874 57.1709 74.8598 57.1496 74.7207 57.1496C74.5571 57.1496 74.4099 57.1856 74.279 57.2594C74.1481 57.3331 74.045 57.4347 73.9697 57.5626C73.8945 57.692 73.8568 57.8412 73.8568 58.0083V58.0067Z" fill="white"/>
<path d="M77.9531 56.6792L78.0169 57.2675L77.9973 57.1905C78.0872 57.0004 78.2263 56.8496 78.4128 56.7349C78.5994 56.6202 78.8219 56.5645 79.0804 56.5645C79.3389 56.5645 79.545 56.6415 79.7152 56.7939C79.8854 56.9463 79.9721 57.1413 79.977 57.3789V59.4143H79.2538V57.6444C79.2489 57.5068 79.2113 57.3953 79.1376 57.3117C79.064 57.2282 78.9479 57.1839 78.7892 57.179C78.6435 57.179 78.511 57.2233 78.3932 57.3117C78.2754 57.4002 78.1838 57.5215 78.1216 57.6739C78.0594 57.8263 78.0283 58.005 78.0283 58.2065V59.4143H77.3052V56.6808H77.9498L77.9531 56.6792Z" fill="white"/>
<path d="M84.526 57.1962C84.4099 57.1962 84.2986 57.2191 84.1939 57.2633C84.0892 57.3092 83.9943 57.3699 83.9125 57.4469C83.8307 57.5239 83.7669 57.6124 83.7227 57.7124C83.6769 57.8107 83.6556 57.9189 83.6556 58.0352C83.6556 58.186 83.6949 58.3187 83.7718 58.4351C83.8487 58.5514 83.955 58.6432 84.0908 58.7104C84.2266 58.7776 84.3755 58.8104 84.5391 58.8104C84.6946 58.8104 84.8271 58.7858 84.9383 58.7366C85.0496 58.6875 85.1445 58.6252 85.2214 58.5498C85.2983 58.4744 85.3588 58.3892 85.4014 58.2942L85.8791 58.7006C85.7679 58.9202 85.5912 59.1054 85.3506 59.2561C85.1101 59.4069 84.8042 59.4823 84.4344 59.4823C84.1383 59.4823 83.8732 59.4216 83.6409 59.2987C83.4086 59.1758 83.222 59.0087 83.083 58.794C82.9439 58.5809 82.8735 58.3384 82.8735 58.0664C82.8735 57.8599 82.9194 57.6698 83.0126 57.4944C83.1042 57.3207 83.2302 57.1667 83.3873 57.0355C83.5444 56.9044 83.7211 56.8012 83.9158 56.7291C84.1121 56.6553 84.3101 56.6144 84.5129 56.6062L84.526 57.1945V57.1962ZM86.9835 59.4118H86.1196L83.9452 56.5111C83.9027 56.4505 83.8519 56.3718 83.7963 56.2751C83.7407 56.1785 83.6916 56.0703 83.6474 55.9523C83.6049 55.8343 83.5836 55.713 83.5836 55.5868C83.5836 55.4099 83.6294 55.2394 83.7194 55.0739C83.8094 54.9084 83.9436 54.7707 84.1186 54.6642C84.2953 54.556 84.5097 54.502 84.7633 54.502C85.0381 54.502 85.2836 54.5577 85.4979 54.6708C85.7122 54.7822 85.8857 54.9149 86.0133 55.0641L85.6386 55.5623C85.5061 55.4328 85.3768 55.3295 85.2508 55.2525C85.1265 55.1755 85.0038 55.1362 84.8827 55.1362C84.7109 55.1362 84.58 55.1886 84.49 55.2919C84.4 55.3951 84.3542 55.5131 84.3542 55.6475C84.3542 55.7245 84.3706 55.8015 84.4066 55.8769C84.441 55.9523 84.4737 56.0195 84.5064 56.0768C84.5391 56.1342 84.5588 56.1735 84.5686 56.1899L86.9819 59.4135L86.9835 59.4118ZM86.0542 56.6078H86.7446L85.9707 58.5777L85.4292 58.2483L86.0542 56.6078Z" fill="white"/>
<path d="M89.9634 59.4085V54.7051H91.2985C91.7631 54.7051 92.1591 54.7755 92.4879 54.9181C92.8168 55.0607 93.0819 55.2475 93.2815 55.4802C93.4811 55.7129 93.6283 55.9719 93.7232 56.2587C93.8181 56.5455 93.8656 56.8322 93.8656 57.1207C93.8656 57.4747 93.8034 57.7909 93.679 58.0712C93.5547 58.3514 93.3845 58.5907 93.1702 58.7923C92.9559 58.9922 92.7055 59.1462 92.4225 59.2511C92.1394 59.356 91.8417 59.4101 91.5324 59.4101H89.965L89.9634 59.4085ZM90.7176 58.6841H91.3819C91.6355 58.6841 91.8662 58.648 92.0756 58.5776C92.2834 58.5071 92.4634 58.4039 92.6139 58.2678C92.7644 58.1318 92.8822 57.9647 92.9657 57.7631C93.0491 57.5632 93.0917 57.3304 93.0917 57.0682C93.0917 56.7749 93.0426 56.5242 92.946 56.316C92.8495 56.1063 92.7219 55.9375 92.5648 55.8047C92.4078 55.6736 92.2376 55.5769 92.0527 55.5179C91.8678 55.4573 91.6846 55.4278 91.5046 55.4278H90.7176V58.6841Z" fill="white"/>
<path d="M96.0201 59.4832C95.706 59.4832 95.4344 59.4209 95.2037 59.2964C94.973 59.1718 94.798 58.9998 94.6785 58.7802C94.5574 58.5606 94.4985 58.3082 94.4985 58.0247C94.4985 57.7412 94.5673 57.5019 94.7047 57.2823C94.8421 57.0627 95.0286 56.8873 95.2626 56.7562C95.4966 56.6251 95.7567 56.5596 96.0398 56.5596C96.4145 56.5596 96.722 56.6677 96.9658 56.8857C97.208 57.1037 97.3716 57.4101 97.4534 57.8067L95.2544 58.5491L95.0925 58.1427L96.8022 57.5281L96.6599 57.6182C96.6124 57.4855 96.5355 57.3691 96.4275 57.2725C96.3196 57.1758 96.1723 57.1266 95.9825 57.1266C95.832 57.1266 95.6978 57.1627 95.5833 57.2364C95.4671 57.3101 95.3755 57.4101 95.3084 57.5363C95.2413 57.6641 95.2086 57.8116 95.2086 57.9788C95.2086 58.164 95.2446 58.3229 95.3182 58.454C95.3919 58.5851 95.49 58.6867 95.6144 58.7572C95.7387 58.8277 95.8811 58.8637 96.0398 58.8637C96.151 58.8637 96.259 58.8441 96.3621 58.8064C96.4652 58.767 96.5617 58.7162 96.6517 58.6507L96.9806 59.1866C96.8382 59.2767 96.6828 59.3488 96.5126 59.4029C96.3425 59.457 96.1789 59.4832 96.0185 59.4832H96.0201Z" fill="white"/>
<path d="M99.2183 59.4732L97.6509 56.6758H98.5082L99.4948 58.7308L99.0498 58.7177L99.9333 56.6758H100.746L99.2494 59.4732H99.2167H99.2183Z" fill="white"/>
<path d="M102.561 59.4832C102.247 59.4832 101.975 59.4209 101.745 59.2964C101.514 59.1718 101.339 58.9998 101.22 58.7802C101.098 58.5606 101.04 58.3082 101.04 58.0247C101.04 57.7412 101.108 57.5019 101.246 57.2823C101.383 57.0627 101.57 56.8873 101.804 56.7562C102.038 56.6251 102.298 56.5596 102.581 56.5596C102.955 56.5596 103.263 56.6677 103.507 56.8857C103.749 57.1037 103.913 57.4101 103.994 57.8067L101.795 58.5491L101.633 58.1427L103.343 57.5281L103.201 57.6182C103.153 57.4855 103.077 57.3691 102.969 57.2725C102.861 57.1758 102.713 57.1266 102.524 57.1266C102.373 57.1266 102.239 57.1627 102.124 57.2364C102.008 57.3101 101.917 57.4101 101.849 57.5363C101.782 57.6641 101.75 57.8116 101.75 57.9788C101.75 58.164 101.786 58.3229 101.859 58.454C101.933 58.5851 102.031 58.6867 102.155 58.7572C102.28 58.8277 102.422 58.8637 102.581 58.8637C102.692 58.8637 102.8 58.8441 102.903 58.8064C103.006 58.767 103.103 58.7162 103.193 58.6507L103.522 59.1866C103.379 59.2767 103.224 59.3488 103.054 59.4029C102.883 59.457 102.72 59.4832 102.56 59.4832H102.561Z" fill="white"/>
<path d="M104.709 54.3711H105.433V59.4104H104.709V54.3711Z" fill="white"/>
<path d="M106.192 58.0132C106.192 57.7379 106.257 57.4904 106.388 57.2708C106.519 57.0512 106.701 56.8775 106.933 56.7481C107.165 56.6186 107.432 56.5547 107.733 56.5547C108.034 56.5547 108.298 56.6186 108.523 56.7481C108.749 56.8775 108.924 57.0512 109.049 57.2708C109.173 57.4904 109.235 57.7363 109.235 58.0067C109.235 58.2771 109.173 58.5376 109.049 58.7589C108.924 58.9801 108.749 59.1555 108.523 59.2849C108.298 59.4144 108.028 59.4783 107.713 59.4783C107.421 59.4783 107.16 59.4193 106.93 59.3013C106.699 59.1833 106.519 59.0145 106.388 58.7949C106.257 58.5753 106.192 58.3148 106.192 58.0132ZM106.922 58.0198C106.922 58.1837 106.956 58.3295 107.025 58.459C107.093 58.5884 107.187 58.6917 107.306 58.7687C107.424 58.8457 107.558 58.8851 107.709 58.8851C107.867 58.8851 108.006 58.8457 108.124 58.7687C108.242 58.6917 108.335 58.5884 108.406 58.459C108.474 58.3295 108.509 58.1837 108.509 58.0198C108.509 57.8559 108.474 57.71 108.406 57.5806C108.337 57.4511 108.244 57.3479 108.124 57.2708C108.006 57.1938 107.869 57.1545 107.715 57.1545C107.561 57.1545 107.429 57.1938 107.309 57.2708C107.188 57.3479 107.095 57.4528 107.026 57.5839C106.958 57.715 106.923 57.8608 106.923 58.0198H106.922Z" fill="white"/>
<path d="M111.657 59.4837C111.464 59.4837 111.279 59.4428 111.103 59.3608C110.926 59.2789 110.787 59.1674 110.684 59.0249L110.723 58.8053V60.7243H110.006V56.6273H110.62L110.729 57.2533L110.653 57.0665C110.795 56.9206 110.96 56.7977 111.15 56.701C111.34 56.6043 111.554 56.5552 111.795 56.5552C112.053 56.5552 112.284 56.6158 112.488 56.7354C112.693 56.8567 112.853 57.0255 112.969 57.2451C113.086 57.4647 113.143 57.7269 113.143 58.0334C113.143 58.3398 113.079 58.5939 112.95 58.8085C112.82 59.0232 112.644 59.1904 112.421 59.3067C112.197 59.4231 111.943 59.4804 111.66 59.4804L111.657 59.4837ZM111.515 58.9085C111.678 58.9085 111.827 58.8724 111.96 58.7987C112.092 58.725 112.199 58.6234 112.279 58.4922C112.359 58.3611 112.398 58.2136 112.398 58.0498C112.398 57.8777 112.361 57.7253 112.285 57.5942C112.21 57.4631 112.109 57.3598 111.983 57.2844C111.855 57.2091 111.714 57.1714 111.561 57.1714C111.423 57.1714 111.299 57.1943 111.189 57.2418C111.08 57.2894 110.985 57.3566 110.906 57.445C110.826 57.5335 110.767 57.6384 110.729 57.7581V58.3071C110.756 58.4234 110.805 58.5267 110.878 58.6168C110.952 58.7069 111.044 58.779 111.157 58.8298C111.268 58.8806 111.389 58.9069 111.518 58.9069L111.515 58.9085Z" fill="white"/>
<path d="M114.553 56.6765L114.617 57.232L114.59 57.1862C114.698 56.9879 114.839 56.8338 115.016 56.7207C115.193 56.6093 115.397 56.5519 115.629 56.5519C115.785 56.5519 115.919 56.5749 116.035 56.6191C116.151 56.6634 116.249 56.7306 116.328 56.8191C116.408 56.9076 116.457 57.0157 116.48 57.1452L116.454 57.1648C116.562 56.9715 116.703 56.8207 116.879 56.7125C117.056 56.6044 117.244 56.5503 117.447 56.5503C117.709 56.5503 117.92 56.6257 118.079 56.7764C118.237 56.9272 118.319 57.1255 118.324 57.3713V59.4067H117.607V57.6565C117.603 57.5237 117.575 57.4123 117.524 57.3238C117.472 57.2353 117.375 57.1878 117.234 57.178C117.079 57.178 116.946 57.2271 116.835 57.3238C116.724 57.4205 116.636 57.5451 116.573 57.6991C116.511 57.8515 116.477 58.0121 116.474 58.1809V59.4084H115.75V57.6581C115.746 57.5254 115.716 57.4139 115.66 57.3255C115.605 57.237 115.505 57.1894 115.364 57.1796C115.214 57.1796 115.083 57.2288 114.972 57.3255C114.86 57.4221 114.775 57.5467 114.716 57.7007C114.659 57.8531 114.63 58.017 114.63 58.1891V59.41H113.907V56.6765H114.551H114.553Z" fill="white"/>
<path d="M120.616 59.4832C120.302 59.4832 120.03 59.4209 119.799 59.2964C119.569 59.1718 119.394 58.9998 119.274 58.7802C119.153 58.5606 119.094 58.3082 119.094 58.0247C119.094 57.7412 119.163 57.5019 119.3 57.2823C119.438 57.0627 119.624 56.8873 119.858 56.7562C120.092 56.6251 120.352 56.5596 120.635 56.5596C121.01 56.5596 121.318 56.6677 121.562 56.8857C121.804 57.1037 121.967 57.4101 122.049 57.8067L119.85 58.5491L119.688 58.1427L121.398 57.5281L121.256 57.6182C121.208 57.4855 121.131 57.3691 121.023 57.2725C120.915 57.1758 120.768 57.1266 120.578 57.1266C120.428 57.1266 120.294 57.1627 120.179 57.2364C120.063 57.3101 119.971 57.4101 119.904 57.5363C119.837 57.6641 119.804 57.8116 119.804 57.9788C119.804 58.164 119.84 58.3229 119.914 58.454C119.988 58.5851 120.086 58.6867 120.21 58.7572C120.334 58.8277 120.477 58.8637 120.635 58.8637C120.747 58.8637 120.855 58.8441 120.958 58.8064C121.061 58.767 121.157 58.7162 121.247 58.6507L121.576 59.1866C121.434 59.2767 121.278 59.3488 121.108 59.4029C120.938 59.457 120.775 59.4832 120.614 59.4832H120.616Z" fill="white"/>
<path d="M123.41 56.6792L123.474 57.2675L123.454 57.1905C123.544 57.0004 123.683 56.8496 123.87 56.7349C124.056 56.6202 124.279 56.5645 124.537 56.5645C124.796 56.5645 125.002 56.6415 125.172 56.7939C125.342 56.9463 125.429 57.1413 125.434 57.3789V59.4143H124.711V57.6444C124.706 57.5068 124.668 57.3953 124.595 57.3117C124.521 57.2282 124.405 57.1839 124.246 57.179C124.101 57.179 123.968 57.2233 123.85 57.3117C123.732 57.4002 123.641 57.5215 123.579 57.6739C123.516 57.8263 123.485 58.005 123.485 58.2065V59.4143H122.762V56.6808H123.407L123.41 56.6792Z" fill="white"/>
<path d="M126.692 55.4751H127.416V56.6763H128.126V57.2385H127.416V59.4099H126.692V57.2385H126.221V56.6763H126.692V55.4751Z" fill="white"/>
<path d="M133.51 55.6705C133.342 55.5803 133.163 55.5033 132.975 55.441C132.785 55.3788 132.605 55.3476 132.433 55.3476C132.201 55.3476 132.018 55.4001 131.885 55.5033C131.753 55.6066 131.686 55.7491 131.686 55.9294C131.686 56.0589 131.732 56.1719 131.825 56.2686C131.916 56.3653 132.036 56.4489 132.183 56.521C132.329 56.5915 132.484 56.6603 132.648 56.7242C132.79 56.7767 132.929 56.8373 133.067 56.9078C133.204 56.9782 133.33 57.0651 133.445 57.1667C133.559 57.2683 133.649 57.3978 133.716 57.5551C133.783 57.7124 133.816 57.9009 133.816 58.1205C133.816 58.3696 133.755 58.5957 133.633 58.7957C133.51 58.9956 133.33 59.1578 133.094 59.2808C132.857 59.4037 132.576 59.4643 132.25 59.4643C132.052 59.4643 131.859 59.443 131.673 59.4004C131.486 59.3578 131.308 59.2988 131.141 59.2267C130.972 59.1529 130.819 59.0644 130.676 58.9612L131.012 58.3794C131.115 58.4564 131.233 58.5285 131.367 58.5925C131.499 58.6564 131.637 58.7088 131.776 58.7481C131.915 58.7875 132.051 58.8055 132.178 58.8055C132.306 58.8055 132.44 58.7826 132.574 58.7383C132.71 58.6924 132.82 58.6203 132.906 58.522C132.993 58.4237 133.036 58.2893 133.036 58.1221C133.036 57.9894 132.996 57.8763 132.919 57.7829C132.843 57.6911 132.743 57.6092 132.62 57.5371C132.497 57.4666 132.363 57.4027 132.218 57.347C132.075 57.2912 131.928 57.229 131.772 57.1601C131.617 57.0913 131.475 57.0061 131.344 56.9045C131.213 56.8029 131.108 56.68 131.031 56.5325C130.954 56.3866 130.915 56.208 130.915 55.9966C130.915 55.7377 130.972 55.5131 131.089 55.3214C131.205 55.1297 131.372 54.9773 131.589 54.8658C131.807 54.7544 132.052 54.6937 132.327 54.6855C132.658 54.6855 132.941 54.7249 133.175 54.8052C133.409 54.8855 133.618 54.9822 133.803 55.0985L133.513 55.6737L133.51 55.6705Z" fill="white"/>
<path d="M136.917 59.1666C136.792 59.2616 136.642 59.337 136.468 59.396C136.293 59.4534 136.118 59.4829 135.943 59.4829C135.642 59.4829 135.377 59.4239 135.146 59.3059C134.916 59.1879 134.739 59.0224 134.615 58.8077C134.49 58.5946 134.428 58.339 134.428 58.0424C134.428 57.7457 134.495 57.4901 134.631 57.277C134.767 57.064 134.945 56.8985 135.166 56.7821C135.387 56.6658 135.621 56.6084 135.866 56.6084C136.099 56.6084 136.303 56.6395 136.48 56.7018C136.657 56.7641 136.807 56.8493 136.932 56.9575L136.583 57.4294C136.509 57.3737 136.418 57.3213 136.308 57.2705C136.199 57.2213 136.073 57.1967 135.93 57.1967C135.788 57.1967 135.659 57.2344 135.539 57.3098C135.421 57.3852 135.326 57.4852 135.256 57.6097C135.186 57.7343 135.15 57.8785 135.15 58.0424C135.15 58.198 135.186 58.339 135.259 58.4684C135.333 58.5979 135.433 58.6995 135.559 58.7749C135.686 58.8503 135.834 58.888 136.001 58.888C136.112 58.888 136.213 58.8716 136.303 58.8388C136.393 58.806 136.475 58.7618 136.549 58.7061L136.917 59.1649V59.1666Z" fill="white"/>
<path d="M137.658 59.4104V54.3711H138.362V57.2783L138.349 57.162C138.447 56.9899 138.588 56.8457 138.771 56.7326C138.954 56.6179 139.173 56.5622 139.432 56.5622C139.69 56.5622 139.897 56.6392 140.067 56.7916C140.237 56.944 140.324 57.139 140.329 57.3767V59.4121H139.605V57.6422C139.6 57.5045 139.563 57.3931 139.489 57.3095C139.416 57.2259 139.299 57.1816 139.141 57.1767C138.995 57.1767 138.863 57.221 138.745 57.3095C138.627 57.398 138.535 57.5192 138.473 57.6717C138.411 57.8241 138.38 58.0027 138.38 58.2043V59.4121H137.657L137.658 59.4104Z" fill="white"/>
<path d="M141.096 58.0132C141.096 57.7379 141.162 57.4904 141.293 57.2708C141.423 57.0512 141.605 56.8775 141.837 56.7481C142.07 56.6186 142.336 56.5547 142.637 56.5547C142.938 56.5547 143.202 56.6186 143.428 56.7481C143.653 56.8775 143.829 57.0512 143.953 57.2708C144.077 57.4904 144.139 57.7363 144.139 58.0067C144.139 58.2771 144.077 58.5376 143.953 58.7589C143.829 58.9801 143.653 59.1555 143.428 59.2849C143.202 59.4144 142.932 59.4783 142.618 59.4783C142.325 59.4783 142.065 59.4193 141.834 59.3013C141.603 59.1833 141.423 59.0145 141.293 58.7949C141.162 58.5753 141.096 58.3148 141.096 58.0132ZM141.826 58.0198C141.826 58.1837 141.86 58.3295 141.929 58.459C141.998 58.5884 142.091 58.6917 142.21 58.7687C142.328 58.8457 142.462 58.8851 142.613 58.8851C142.772 58.8851 142.911 58.8457 143.028 58.7687C143.146 58.6917 143.24 58.5884 143.31 58.459C143.379 58.3295 143.413 58.1837 143.413 58.0198C143.413 57.8559 143.379 57.71 143.31 57.5806C143.241 57.4511 143.148 57.3479 143.028 57.2708C142.911 57.1938 142.773 57.1545 142.619 57.1545C142.466 57.1545 142.333 57.1938 142.214 57.2708C142.093 57.3479 141.999 57.4528 141.931 57.5839C141.862 57.715 141.828 57.8608 141.828 58.0198H141.826Z" fill="white"/>
<path d="M144.676 58.0132C144.676 57.7379 144.742 57.4904 144.873 57.2708C145.003 57.0512 145.185 56.8775 145.417 56.7481C145.65 56.6186 145.916 56.5547 146.218 56.5547C146.519 56.5547 146.782 56.6186 147.008 56.7481C147.234 56.8775 147.409 57.0512 147.533 57.2708C147.657 57.4904 147.719 57.7363 147.719 58.0067C147.719 58.2771 147.657 58.5376 147.533 58.7589C147.409 58.9801 147.234 59.1555 147.008 59.2849C146.782 59.4144 146.512 59.4783 146.198 59.4783C145.905 59.4783 145.645 59.4193 145.414 59.3013C145.183 59.1833 145.003 59.0145 144.873 58.7949C144.742 58.5753 144.676 58.3148 144.676 58.0132ZM145.406 58.0198C145.406 58.1837 145.44 58.3295 145.509 58.459C145.578 58.5884 145.671 58.6917 145.79 58.7687C145.908 58.8457 146.042 58.8851 146.193 58.8851C146.352 58.8851 146.491 58.8457 146.609 58.7687C146.726 58.6917 146.82 58.5884 146.89 58.459C146.959 58.3295 146.993 58.1837 146.993 58.0198C146.993 57.8559 146.959 57.71 146.89 57.5806C146.821 57.4511 146.728 57.3479 146.609 57.2708C146.491 57.1938 146.353 57.1545 146.2 57.1545C146.046 57.1545 145.913 57.1938 145.794 57.2708C145.673 57.3479 145.579 57.4528 145.511 57.5839C145.442 57.715 145.408 57.8608 145.408 58.0198H145.406Z" fill="white"/>
<path d="M148.489 54.3711H149.212V59.4104H148.489V54.3711Z" fill="white"/>
<path d="M145.076 27.7085H146.696V28.0838H146.127V30.07H145.644L145.651 28.0838H145.075V27.7085H145.076ZM147.072 27.7085H147.696L148.426 29.4997L149.175 27.7085H149.764V30.07H149.316L149.309 28.3591L148.579 30.07H148.237L147.514 28.3329V30.07H147.072V27.7085Z" fill="white"/>
</g>
<defs>
<clipPath id="clip0_1_1198">
<rect width="152" height="63" fill="white" transform="translate(0.551392)"/>
</clipPath>
</defs>
</svg>
