<svg width="32" height="32" viewBox="0 0 32 32" fill="none" xmlns="http://www.w3.org/2000/svg">
<g id="Transition to Internship">
<g id="Group">
<path id="Vector" fill-rule="evenodd" clip-rule="evenodd" d="M8.1603 29.7935L6.06248 30.6647C5.60736 30.8536 5.082 30.637 4.89256 30.182L1.34019 21.6519C1.29439 21.5433 1.27057 21.4268 1.2701 21.3089C1.26963 21.1911 1.29253 21.0744 1.33746 20.9655C1.3824 20.8566 1.44848 20.7577 1.53189 20.6744C1.61529 20.5912 1.71437 20.5254 1.82338 20.4807L3.92121 19.6096C4.37639 19.4206 4.90169 19.6373 5.09113 20.0923L8.6435 28.6224C8.68928 28.731 8.7131 28.8475 8.71356 28.9653C8.71403 29.0831 8.69113 29.1999 8.6462 29.3088C8.60126 29.4177 8.53518 29.5166 8.45178 29.5998C8.36838 29.683 8.26931 29.7488 8.1603 29.7935ZM9.26766 4.28876H13.7401V2.55348C13.7401 1.84515 14.3181 1.26709 15.0265 1.26709H18.1842C18.8925 1.26709 19.4706 1.84515 19.4706 2.55348V4.28876H23.9431C24.0107 4.28889 24.0756 4.31583 24.1235 4.36369C24.1713 4.41155 24.1983 4.47642 24.1984 4.5441V6.14518L18.2215 8.60186V8.38228C18.2215 7.74813 17.706 7.23275 17.0719 7.23275H16.1388C15.5046 7.23275 14.9892 7.74819 14.9892 8.38228V8.60186L9.01233 6.14518V4.54416C9.01243 4.47646 9.03936 4.41157 9.08722 4.36369C9.13508 4.31582 9.19997 4.28888 9.26766 4.28876ZM7.80218 11.9547C7.9145 11.9547 8.02223 11.9993 8.10166 12.0787C8.18109 12.1582 8.22571 12.2659 8.22571 12.3782C8.22571 12.4905 8.18109 12.5983 8.10166 12.6777C8.02223 12.7571 7.9145 12.8017 7.80218 12.8017H5.34035C5.09125 12.8017 4.91845 12.5891 4.91845 12.3408V12.2784L3.59654 13.2823L4.91845 14.2863V14.1865C4.91845 13.9537 5.10711 13.7629 5.34035 13.7629H7.80218C7.9145 13.7629 8.02223 13.8075 8.10166 13.887C8.18109 13.9664 8.22571 14.0741 8.22571 14.1865C8.22571 14.2988 8.18109 14.4065 8.10166 14.4859C8.02223 14.5654 7.9145 14.61 7.80218 14.61H5.76219V15.136C5.76243 15.4794 5.36558 15.6843 5.08551 15.4719L2.65085 13.6229C2.42486 13.4577 2.41833 13.1182 2.64474 12.9465L5.07189 11.1032C5.34241 10.8799 5.76219 11.0686 5.76219 11.4287V11.9547H7.80218ZM25.4086 5.66186C25.2962 5.66186 25.1885 5.61724 25.1091 5.53781C25.0296 5.45838 24.985 5.35066 24.985 5.23833C24.985 5.126 25.0296 5.01827 25.1091 4.93884C25.1885 4.85942 25.2962 4.81479 25.4086 4.81479H27.4485V4.28876C27.4485 3.9287 27.8683 3.74005 28.1388 3.96325L30.5659 5.80659C30.7923 5.97836 30.7858 6.3178 30.5598 6.48291L28.1252 8.33194C27.8475 8.54262 27.4482 8.34259 27.4485 7.99608V7.47005H25.4086C25.2962 7.47005 25.1885 7.42543 25.1091 7.346C25.0296 7.26657 24.985 7.15884 24.985 7.04652C24.985 6.93419 25.0296 6.82646 25.1091 6.74703C25.1885 6.6676 25.2962 6.62298 25.4086 6.62298H27.8704C28.1034 6.62298 28.2923 6.81351 28.2923 7.04652V7.14635L29.6142 6.14239L28.2923 5.13843V5.20088C28.2923 5.44919 28.1195 5.6618 27.8704 5.6618L25.4086 5.66186ZM16.1388 8.07982C16.0586 8.07998 15.9817 8.1119 15.925 8.1686C15.8683 8.2253 15.8364 8.30216 15.8363 8.38234V10.1163C15.8363 10.5393 16.1823 10.8854 16.6053 10.8854C17.0283 10.8854 17.3744 10.5393 17.3744 10.1163V8.38234C17.3744 8.21571 17.2385 8.07982 17.0719 8.07982H16.1388ZM14.5872 4.28876H18.6235V2.55348C18.6235 2.31274 18.425 2.11416 18.1842 2.11416H15.0265C14.7857 2.11416 14.5872 2.31267 14.5872 2.55348V4.28876ZM24.1984 7.05801L18.2215 9.51475V10.1164C18.2215 11.0069 17.4958 11.7325 16.6053 11.7325C15.7148 11.7325 14.9892 11.0069 14.9892 10.1164V9.51481L9.01227 7.05807V14.8807C9.01242 14.9484 9.03937 15.0132 9.08724 15.0611C9.1351 15.109 9.19998 15.1359 9.26766 15.136H23.9431C24.0107 15.1359 24.0756 15.109 24.1235 15.0611C24.1713 15.0132 24.1983 14.9484 24.1984 14.8807V7.05801ZM26.4578 20.7069L20.9776 22.3147C20.9984 22.5605 20.9685 22.8108 20.9149 23.0643C20.6639 24.2516 19.2419 25.0032 18.0935 24.6955L12.8583 23.2927C12.7499 23.2638 12.6575 23.1929 12.6014 23.0958C12.5452 22.9987 12.5299 22.8833 12.5589 22.7749C12.5879 22.6665 12.6587 22.5741 12.7558 22.5179C12.8529 22.4618 12.9684 22.4465 13.0767 22.4754L18.3347 23.8843C19.0974 24.0887 19.9 23.6373 20.091 22.871C20.284 22.0963 19.8631 21.325 19.0774 21.1145L15.121 20.0544C15.0723 20.0412 15.0264 20.0193 14.9854 19.9899C13.7209 19.0932 12.7841 18.7683 11.9263 18.7903C11.0628 18.8126 10.2247 19.1898 9.19748 19.6922C8.24507 20.1579 7.31826 20.6009 6.40131 21.0354L8.85212 26.9203L9.79484 26.4619C10.4864 26.1257 11.1957 26.0662 11.934 26.2805L16.2975 27.5475C17.4496 27.882 18.9524 27.2972 20.1446 26.8333C22.959 25.7381 25.7819 24.6602 28.6001 23.5742C29.2589 23.3203 29.734 22.6648 29.858 22.0021C29.9461 21.531 29.8546 21.048 29.4567 20.7444C28.9586 20.3642 28.0114 20.2512 26.4578 20.7069Z" fill="white"/>
</g>
</g>
</svg>
